<svg width="47" height="47" viewBox="0 0 47 47" fill="none" xmlns="http://www.w3.org/2000/svg">
<circle cx="23.5" cy="23.5" r="23.5" fill="#2A3238"/>
<circle cx="23.5" cy="23.5" r="23.5" fill="#2F4F46"/>
<path d="M32.9998 21.7487H35.4998C35.4998 15.3362 30.6586 10.5 24.2373 10.5V13C29.3148 13 32.9998 16.6787 32.9998 21.7487Z" fill="white"/>
<path d="M24.2499 18.0003C26.8786 18.0003 27.9999 19.1215 27.9999 21.7503H30.4999C30.4999 17.719 28.2811 15.5003 24.2499 15.5003V18.0003ZM28.5274 24.8041C28.2872 24.5857 27.9715 24.4693 27.6471 24.4793C27.3227 24.4894 27.0149 24.6251 26.7886 24.8578L23.7974 27.9341C23.0774 27.7965 21.6299 27.3453 20.1399 25.859C18.6499 24.3678 18.1986 22.9166 18.0649 22.2016L21.1386 19.209C21.3716 18.983 21.5075 18.6751 21.5176 18.3506C21.5276 18.026 21.411 17.7104 21.1924 17.4703L16.5736 12.3915C16.3549 12.1507 16.051 12.0047 15.7263 11.9844C15.4016 11.9641 15.0819 12.0711 14.8349 12.2828L12.1224 14.609C11.9063 14.8259 11.7773 15.1146 11.7599 15.4203C11.7411 15.7328 11.3836 23.1353 17.1236 28.8778C22.1311 33.8841 28.4036 34.2503 30.1311 34.2503C30.3836 34.2503 30.5386 34.2428 30.5799 34.2403C30.8855 34.2232 31.174 34.0936 31.3899 33.8766L33.7149 31.1628C33.9267 30.916 34.034 30.5963 34.0139 30.2716C33.9938 29.947 33.848 29.6429 33.6074 29.4241L28.5274 24.8041Z" fill="white"/>
</svg>
