<svg width="47" height="47" viewBox="0 0 47 47" fill="none" xmlns="http://www.w3.org/2000/svg">
<circle cx="23.5" cy="23.5" r="23.5" fill="#2A3238"/>
<circle cx="23.5" cy="23.5" r="23.5" fill="#2F4F46"/>
<path d="M23 10.875C20.266 10.8782 17.6448 11.9658 15.7115 13.899C13.7783 15.8323 12.6907 18.4534 12.6875 21.1875C12.6842 23.4218 13.4141 25.5954 14.765 27.375C14.765 27.375 15.0463 27.7453 15.0922 27.7988L23 37.125L30.9116 27.7941C30.9528 27.7444 31.235 27.375 31.235 27.375L31.2359 27.3722C32.5862 25.5934 33.3157 23.4207 33.3125 21.1875C33.3093 18.4534 32.2218 15.8323 30.2885 13.899C28.3552 11.9658 25.7341 10.8782 23 10.875ZM23 24.9375C22.2583 24.9375 21.5333 24.7176 20.9166 24.3055C20.2999 23.8935 19.8193 23.3078 19.5355 22.6226C19.2516 21.9373 19.1774 21.1833 19.3221 20.4559C19.4668 19.7285 19.8239 19.0603 20.3484 18.5359C20.8728 18.0114 21.541 17.6542 22.2684 17.5096C22.9959 17.3649 23.7499 17.4391 24.4351 17.723C25.1203 18.0068 25.706 18.4874 26.118 19.1041C26.5301 19.7208 26.75 20.4458 26.75 21.1875C26.7488 22.1817 26.3533 23.1348 25.6503 23.8378C24.9473 24.5408 23.9942 24.9363 23 24.9375Z" fill="white"/>
</svg>
