<svg width="18" height="29" viewBox="0 0 18 29" fill="none" xmlns="http://www.w3.org/2000/svg">
<path fill-rule="evenodd" clip-rule="evenodd" d="M14.4811 28.5554L0.495421 15.6154C0.339135 15.4707 0.214564 15.2959 0.129405 15.1018C0.0442473 14.9077 0.000311522 14.6984 0.000311531 14.4869C0.00031154 14.2753 0.0442473 14.0661 0.129405 13.872C0.214564 13.6779 0.339135 13.5031 0.495421 13.3584L14.4811 0.418263C15.1122 -0.165769 16.1053 -0.13434 16.6972 0.488475C17.289 1.11138 17.2573 2.09115 16.6259 2.67509L3.86008 14.4869L16.6259 26.2985C17.2573 26.8825 17.2891 27.8622 16.6972 28.4852C16.1052 29.108 15.1122 29.1394 14.4811 28.5554Z" fill="#ADADAD"/>
</svg>
